# xmcd
#
# Track frame offsets:
#	150
#	15270
#	33017
#	52957
#	70402
#	92252
#	105515
#	120367
#	137872
#	152815
#	172310
#	192922
#
# Disc length: 2777 seconds
#
# Revision: 0
# Processed by: cddbd v1.5.1PL0 Copyright (c) Steve Scherf et al.
# Submitted via: audiograbber 1.82.02
#
DISCID=900ad70c
DTITLE=Gin Blossoms - New Miserable Experience
DYEAR=1992
DGENRE=Rock
TTITLE0=Lost Horizons
TTITLE1=Hey Jealousy
TTITLE2=Mrs. Rita
TTITLE3=Until I Fall Away
TTITLE4=Hold Me Down
TTITLE5=Cajun Song
TTITLE6=Hands Are Tied
TTITLE7=Found Out About You
TTITLE8=Allison Road
TTITLE9=29
TTITLE10=Pieces Of The Night
TTITLE11=Cheatin'
EXTD=UPC 082839540322\n
EXTT0=
EXTT1=
EXTT2=
EXTT3=
EXTT4=
EXTT5=
EXTT6=
EXTT7=
EXTT8=
EXTT9=
EXTT10=
EXTT11=
PLAYORDER=
